<svg xmlns="http://www.w3.org/2000/svg" width="102" height="183" viewBox="0 0 102 183" fill="none">
<rect y="39.2174" width="156" height="148" rx="15" transform="rotate(-14.56 0 39.2174)" fill="#FCFFE8"/>
<rect x="0.609639" y="39.5757" width="155" height="147" rx="14.5" transform="rotate(-14.56 0.609639 39.5757)" stroke="#FBFFE5" stroke-opacity="0.4"/>
<path d="M131.371 62.5765C134.058 41.0205 117.765 31.4528 100.237 44.2839C86.8928 27.1469 68.6034 31.8973 65.2855 53.362C43.7272 50.6762 34.1575 66.9683 46.9888 84.4935C29.849 97.8372 34.5988 116.124 56.0658 119.44C53.3783 140.996 69.6716 150.564 87.1996 137.733C100.544 154.87 118.833 150.12 122.151 128.655C143.709 131.341 153.279 115.049 140.448 97.5234C157.588 84.1797 152.838 65.8927 131.371 62.5765Z" fill="#8EFFFD"/>
</svg>