<svg width="156" height="148" viewBox="0 0 156 148" fill="none" xmlns="http://www.w3.org/2000/svg">
<rect width="156" height="148" rx="15" fill="#FCFFE8"/>
<rect x="0.5" y="0.5" width="155" height="147" rx="14.5" stroke="#FBFFE5" stroke-opacity="0.4"/>
<path d="M121.28 55.6347C129.3 35.4466 115.935 22.0901 95.7441 30.1027C87.1367 10.1614 68.2404 10.1614 59.633 30.1027C39.4423 22.0835 26.0841 35.4466 34.0977 55.6347C14.1538 64.241 14.1538 83.1348 34.0977 91.7411C26.0774 111.929 39.4423 125.286 59.633 117.273C68.2404 137.214 87.1367 137.214 95.7441 117.273C115.935 125.292 129.293 111.929 121.28 91.7411C141.223 83.1348 141.223 64.241 121.28 55.6347Z" fill="#8EFFFD"/>
</svg>
