<svg width="226" height="215" viewBox="0 0 226 215" fill="none" xmlns="http://www.w3.org/2000/svg">
<mask id="mask0_27_257" style="mask-type:alpha" maskUnits="userSpaceOnUse" x="0" y="0" width="187" height="97">
<rect width="186.649" height="96.4975" fill="white"/>
</mask>
<g mask="url(#mask0_27_257)">
<mask id="mask1_27_257" style="mask-type:alpha" maskUnits="userSpaceOnUse" x="3" y="4" width="410" height="110">
<path d="M170.23 83.7168C167.51 83.7168 165.439 82.9749 164.017 81.4912C162.657 80.0075 161.977 78.0601 161.977 75.649C161.977 72.8671 162.749 70.6415 164.295 68.9723C165.902 67.3031 168.128 66.4685 170.972 66.4685C173.692 66.4685 175.732 67.1485 177.092 68.5086C178.514 69.8069 179.225 71.7543 179.225 74.3508C179.225 77.1946 178.421 79.482 176.814 81.213C175.207 82.8822 173.012 83.7168 170.23 83.7168ZM173.476 57.2879C170.755 57.2879 168.684 56.5461 167.262 55.0624C165.902 53.5786 165.222 51.6312 165.222 49.2202C165.222 46.4382 165.995 44.2126 167.541 42.5434C169.148 40.8742 171.374 40.0396 174.217 40.0396C176.938 40.0396 178.978 40.7197 180.338 42.0798C181.76 43.378 182.471 45.3254 182.471 47.9219C182.471 50.7657 181.667 53.0531 180.06 54.7842C178.452 56.4534 176.258 57.2879 173.476 57.2879Z" fill="#FF6767"/>
<path d="M150.063 66.3758C150.991 66.0048 151.763 65.8194 152.382 65.8194C153.371 65.8194 154.113 66.1903 154.607 66.9321C155.102 67.674 155.349 68.6322 155.349 69.8069C155.349 71.6615 154.885 73.238 153.958 74.5362C153.093 75.8345 151.578 77.0091 149.414 78.0601C145.767 79.7911 141.037 81.1821 135.226 82.233C129.415 83.2222 123.696 83.7168 118.07 83.7168C110.28 83.7168 103.758 82.8513 98.5033 81.1203C93.2483 79.3274 89.3226 76.8855 86.726 73.7944C84.1913 70.7033 82.924 67.2103 82.924 63.3156C82.924 57.9989 84.6241 53.4859 88.0243 49.7766C91.4864 46.0054 96.5558 43.2853 103.233 41.6161C99.5851 40.5651 96.7722 38.7105 94.7939 36.0521C92.8774 33.3938 91.9191 30.4263 91.9191 27.1498C91.9191 22.6986 93.3101 18.7729 96.0922 15.3727C98.936 11.9107 102.738 9.25233 107.498 7.39767C112.259 5.54301 117.483 4.61568 123.17 4.61568C130.836 4.61568 136.586 6.28487 140.419 9.62326C144.252 12.8998 146.168 17.1655 146.168 22.4204C146.168 26.0679 145.488 29.0353 144.128 31.3227C142.83 33.5483 140.944 34.6611 138.472 34.6611C136.741 34.6611 135.38 34.2902 134.391 33.5483C133.402 32.7446 132.908 31.57 132.908 30.0245C132.908 28.9735 133.062 27.8298 133.371 26.5934C133.68 24.5532 133.835 23.1623 133.835 22.4204C133.835 20.1948 133 18.402 131.331 17.0419C129.662 15.62 126.88 14.909 122.985 14.909C117.73 14.909 113.526 16.0218 110.373 18.2474C107.22 20.473 105.644 23.4714 105.644 27.2425C105.644 30.1481 106.818 32.5592 109.168 34.4757C111.579 36.3303 115.474 37.3504 120.852 37.5358C122.212 37.5977 123.17 37.9068 123.727 38.4632C124.283 39.0196 124.561 39.9469 124.561 41.2452C124.561 45.3254 122.707 47.3964 118.997 47.4582C113.866 47.5819 109.6 48.2928 106.2 49.5911C102.862 50.8894 100.42 52.5586 98.8742 54.5987C97.3904 56.577 96.6486 58.7098 96.6486 60.9972C96.6486 64.8302 98.4414 67.7358 102.027 69.7141C105.613 71.6306 111.301 72.5888 119.09 72.5888C124.221 72.5888 129.631 72.0015 135.319 70.8269C141.068 69.5905 145.983 68.1068 150.063 66.3758Z" fill="#FF6767"/>
<path d="M89.4264 62.5737C90.2301 62.5737 90.8484 62.9446 91.2811 63.6865C91.7757 64.4284 92.023 65.4484 92.023 66.7467C92.023 69.1577 91.4357 71.0742 90.2611 72.4961C87.2936 76.0818 84.2952 78.8638 81.2659 80.8421C78.2365 82.7585 74.6508 83.7168 70.5087 83.7168C66.4903 83.7168 63.0591 82.6349 60.2153 80.4711C57.4332 78.3074 54.7749 74.5981 52.2401 69.3432C50.2 65.1393 48.5926 62.0482 47.418 60.0699C46.2434 58.0298 45.0687 56.577 43.8941 55.7115C42.7813 54.846 41.3903 54.3205 39.7211 54.135C39.4738 55.4333 38.7628 59.5135 37.5882 66.3757C37.0936 69.4668 36.7845 71.3524 36.6609 72.0324C36.0426 75.8036 34.8062 78.7092 32.9515 80.7493C31.0968 82.7276 28.2839 83.7168 24.5127 83.7168C20.3706 83.7168 16.6921 82.5113 13.4774 80.1002C10.3244 77.6273 7.88242 74.2271 6.15139 69.8996C4.42036 65.5102 3.55484 60.5336 3.55484 54.9696C3.55484 44.5835 5.3477 35.6194 8.93341 28.0771C12.5809 20.5348 17.6504 14.7854 24.1418 10.8288C30.695 6.81037 38.2373 4.80116 46.7688 4.80116C52.7038 4.80116 57.6805 5.69758 61.699 7.49041C65.7175 9.28324 68.685 11.7561 70.6015 14.909C72.5798 18.062 73.5689 21.6167 73.5689 25.5733C73.5689 29.0353 72.7343 32.4355 71.0651 35.7739C69.4577 39.0505 67.0157 41.9561 63.7392 44.4908C60.4626 47.0255 56.475 48.9111 51.7765 50.1475C54.744 50.9512 57.0314 52.2495 58.6388 54.0423C60.2462 55.8351 61.8536 58.4625 63.4609 61.9246C65.192 65.6339 66.8921 68.354 68.5613 70.0851C70.2924 71.8161 72.2707 72.6816 74.4963 72.6816C76.4746 72.6816 78.3602 72.0324 80.1531 70.7342C81.9459 69.3741 84.2024 67.0867 86.9226 63.872C87.6645 63.0064 88.4991 62.5737 89.4264 62.5737ZM26.9238 54.0423C24.8218 54.0423 23.369 53.5477 22.5653 52.5586C21.8234 51.5694 21.4525 50.4566 21.4525 49.2202C21.4525 47.7364 21.9162 46.5618 22.8435 45.6963C23.8327 44.8308 24.9455 44.3981 26.1819 44.3981H28.5003C29.4894 38.3395 30.4168 33.1156 31.2823 28.7262C32.086 24.7078 34.6825 22.6986 39.0719 22.6986C42.5958 22.6986 44.3578 24.275 44.3578 27.428C44.3578 28.108 44.3269 28.6335 44.265 29.0044L41.483 44.3981C44.8214 44.2126 47.8507 43.4089 50.5709 41.987C53.353 40.5651 55.5477 38.5868 57.155 36.0521C58.8243 33.5174 59.6589 30.6427 59.6589 27.428C59.6589 23.5332 58.3297 20.473 55.6713 18.2474C53.0129 16.0218 49.1181 14.909 43.9868 14.909C37.9282 14.909 32.6115 16.4237 28.0366 19.4529C23.5235 22.4204 19.9997 26.8716 17.4649 32.8065C14.9302 38.6795 13.6628 45.8509 13.6628 54.3205C13.6628 58.2771 14.0647 61.6773 14.8684 64.5211C15.6721 67.3649 16.6612 69.4977 17.8359 70.9196C19.0105 72.3416 20.1233 73.0525 21.1743 73.0525C21.978 73.0525 22.6271 72.6507 23.1217 71.847C23.6781 71.0433 24.1109 69.745 24.42 67.9522L26.9238 54.0423Z" fill="#FF6767"/>
</mask>
<g mask="url(#mask1_27_257)">
<rect x="3.70598" y="1.85575" width="408.742" height="112.031" fill="url(#paint0_linear_27_257)"/>
</g>
</g>
<mask id="mask2_27_257" style="mask-type:alpha" maskUnits="userSpaceOnUse" x="3" y="104" width="224" height="111">
<rect x="3.80914" y="104.116" width="222.201" height="110.464" fill="white"/>
</mask>
<g mask="url(#mask2_27_257)">
<mask id="mask3_27_257" style="mask-type:alpha" maskUnits="userSpaceOnUse" x="-183" y="106" width="410" height="110">
<path d="M221.442 164.026C221.813 163.902 222.369 163.841 223.111 163.841C225.213 163.841 226.264 165.201 226.264 167.921C226.264 169.405 225.924 170.672 225.244 171.723C224.626 172.712 223.637 173.33 222.277 173.578C216.651 174.629 211.118 175.803 205.677 177.101L205.399 179.327C203.668 191.506 200.206 200.501 195.013 206.312C189.882 212.185 183.452 215.122 175.724 215.122C170.593 215.122 166.605 213.854 163.762 211.32C160.98 208.847 159.589 205.663 159.589 201.768C159.589 195.277 162.494 189.497 168.306 184.427C174.117 179.358 182.927 174.876 194.735 170.981L196.589 157.906C196.837 156.422 197.146 154.444 197.517 151.971C194.611 159.637 190.902 165.355 186.389 169.126C181.876 172.898 176.837 174.783 171.273 174.783C165.956 174.783 161.907 173.176 159.125 169.961C156.343 166.684 154.952 162.481 154.952 157.349C154.952 155.062 155.199 152.558 155.694 149.838C156.188 147.056 156.961 143.316 158.012 138.617C158.939 134.352 159.619 130.951 160.052 128.417C160.547 125.882 160.794 123.625 160.794 121.647C160.794 118.68 159.65 117.196 157.363 117.196C155.57 117.196 153.437 118.092 150.964 119.885C148.553 121.616 145.988 124.306 143.267 127.953C142.402 129.128 141.444 129.715 140.393 129.715C139.527 129.715 138.754 129.313 138.074 128.509C137.456 127.644 137.147 126.686 137.147 125.635C137.147 123.718 138.012 121.554 139.743 119.143C146.049 110.488 153.437 106.161 161.907 106.161C165.678 106.161 168.615 107.304 170.717 109.592C172.88 111.879 173.962 115.249 173.962 119.7C173.962 122.915 173.653 126.222 173.035 129.622C172.479 132.961 171.613 137.226 170.438 142.419C169.697 145.51 169.14 148.014 168.769 149.931C168.398 151.785 168.213 153.331 168.213 154.567C168.213 157.72 168.769 159.977 169.882 161.337C170.995 162.697 172.942 163.377 175.724 163.377C179.063 163.377 182.463 161.553 185.925 157.906C189.449 154.196 192.602 148.602 195.384 141.121C198.228 133.641 200.268 124.491 201.504 113.672C201.813 110.952 202.524 109.035 203.637 107.923C204.75 106.748 206.357 106.161 208.459 106.161C212.787 106.161 214.951 108.325 214.951 112.652C214.951 113.394 214.92 113.981 214.858 114.414C213.56 123.625 212.354 131.941 211.241 139.359C210.623 143.81 209.943 148.385 209.201 153.084C208.521 157.782 207.841 162.542 207.161 167.364C211.674 166.128 216.434 165.015 221.442 164.026ZM193.344 180.718C178.383 185.911 170.902 192.217 170.902 199.635C170.902 201.366 171.428 202.788 172.479 203.901C173.591 205.076 175.137 205.663 177.115 205.663C185.709 205.663 191.087 197.564 193.251 181.367L193.344 180.718Z" fill="#FF6767"/>
<path d="M146.62 164.119C147.424 164.119 148.042 164.49 148.475 165.232C148.969 165.973 149.216 166.994 149.216 168.292C149.216 170.703 148.629 172.619 147.454 174.041C143.992 178.183 140.623 181.089 137.346 182.758C134.132 184.427 130.237 185.262 125.662 185.262C122.447 185.262 119.48 184.86 116.76 184.056C114.039 183.253 110.732 182.047 106.837 180.44C103.313 178.894 99.9128 177.627 96.6362 176.638C93.4833 182.387 88.7539 185.262 82.448 185.262C78.9859 185.262 76.2348 184.489 74.1946 182.944C72.0927 181.336 71.0417 179.296 71.0417 176.823C71.0417 173.794 72.4945 171.29 75.4002 169.312C78.3059 167.272 82.1698 166.252 86.9919 166.252H88.1975L89.8667 139.266C90.2376 133.084 91.3504 127.984 93.2051 123.965C95.0598 119.947 97.6254 116.516 100.902 113.672C103.746 111.199 106.992 109.345 110.639 108.108C114.287 106.81 118.151 106.161 122.231 106.161C128.908 106.161 134.039 107.892 137.625 111.354C141.21 114.816 143.003 119.329 143.003 124.893C143.003 128.664 142.323 131.724 140.963 134.073C139.603 136.361 137.717 137.504 135.306 137.504C133.575 137.504 132.215 137.103 131.226 136.299C130.237 135.433 129.742 134.228 129.742 132.682C129.742 132.126 129.866 131.106 130.113 129.622C130.484 127.891 130.67 126.346 130.67 124.986C130.67 122.389 129.897 120.349 128.351 118.865C126.868 117.32 124.58 116.547 121.489 116.547C116.049 116.547 111.845 118.34 108.877 121.925C105.91 125.449 104.024 131.013 103.22 138.617L101.087 159.668C100.778 162.635 100.377 165.201 99.882 167.364C103.839 168.044 108.784 169.126 114.719 170.61C118.181 171.476 120.84 172.094 122.694 172.465C124.549 172.836 126.187 173.021 127.609 173.021C131.195 173.021 134.255 172.434 136.79 171.259C139.387 170.023 141.829 168.075 144.116 165.417C144.858 164.552 145.693 164.119 146.62 164.119Z" fill="#FF6767"/>
<path d="M76.5417 129.529C76.5417 134.784 75.1816 139.606 72.4614 143.996C69.7412 148.385 65.7845 151.971 60.5914 154.753C55.3983 157.535 49.2161 159.173 42.0447 159.668L38.0571 182.016C36.5115 190.609 32.3076 194.906 25.4453 194.906C21.6741 194.906 18.1811 193.793 14.9664 191.568C11.8134 189.342 9.27869 185.942 7.36219 181.367C5.44569 176.792 4.48744 171.166 4.48744 164.49C4.48744 151.94 6.49667 141.307 10.5151 132.59C14.5954 123.811 20.0358 117.258 26.8363 112.93C33.6986 108.541 41.241 106.346 49.4634 106.346C55.2747 106.346 60.1896 107.366 64.2081 109.406C68.2884 111.447 71.3486 114.229 73.3887 117.752C75.4907 121.214 76.5417 125.14 76.5417 129.529ZM43.7139 150.116C56.3875 148.509 62.7243 141.925 62.7243 130.364C62.7243 126.284 61.3642 122.976 58.644 120.442C55.9857 117.845 51.8436 116.547 46.2177 116.547C39.85 116.547 34.2859 118.556 29.5256 122.574C24.8271 126.593 21.1795 132.188 18.583 139.359C16.0483 146.469 14.7809 154.598 14.7809 163.748C14.7809 167.581 15.1518 170.981 15.8937 173.948C16.6974 176.916 17.6866 179.234 18.8612 180.903C20.0976 182.511 21.2723 183.314 22.3851 183.314C23.9306 183.314 25.1053 181.182 25.909 176.916L28.9692 159.389C26.5581 159.018 25.5071 158.864 25.8162 158.926C23.9616 158.617 22.756 158.06 22.1996 157.257C21.6432 156.391 21.365 155.309 21.365 154.011C21.365 152.651 21.7359 151.569 22.4778 150.765C23.2815 149.962 24.3634 149.56 25.7235 149.56C26.3417 149.56 26.8054 149.591 27.1145 149.652C28.5983 149.9 29.742 150.054 30.5457 150.116C31.3494 145.294 32.4931 138.834 33.9768 130.735C34.3477 128.633 35.1824 127.149 36.4806 126.284C37.8407 125.356 39.4172 124.893 41.2101 124.893C43.2502 124.893 44.703 125.295 45.5686 126.098C46.4959 126.84 46.9596 128.046 46.9596 129.715C46.9596 130.704 46.8977 131.508 46.7741 132.126L43.7139 150.116Z" fill="#FF6767"/>
</mask>
<g mask="url(#mask3_27_257)">
<rect x="-182.078" y="103.401" width="408.742" height="112.031" fill="url(#paint1_linear_27_257)"/>
</g>
</g>
<defs>
<linearGradient id="paint0_linear_27_257" x1="3.70598" y1="57.8712" x2="412.448" y2="57.8712" gradientUnits="userSpaceOnUse">
<stop stop-color="#FF6767"/>
<stop offset="1" stop-color="#A269FF"/>
</linearGradient>
<linearGradient id="paint1_linear_27_257" x1="-182.078" y1="159.416" x2="226.665" y2="159.416" gradientUnits="userSpaceOnUse">
<stop stop-color="#FF6767"/>
<stop offset="1" stop-color="#A269FF"/>
</linearGradient>
</defs>
</svg>
