<svg width="178" height="169" viewBox="0 0 178 169" fill="none" xmlns="http://www.w3.org/2000/svg">
<rect x="0.48291" y="40.543" width="95" height="132" transform="rotate(-15 0.48291 40.543)" fill="#222228"/>
<rect y="40.6724" width="96" height="132" transform="rotate(-15 0 40.6724)" fill="#F5F5F9"/>
<rect x="14.697" y="49.1577" width="72" height="108" transform="rotate(-15 14.697 49.1577)" fill="#555A6E"/>
<rect x="15.3347" y="43.8103" width="2" height="8" transform="rotate(-105 15.3347 43.8103)" fill="#555A6E"/>
<rect x="24.9939" y="41.2222" width="2" height="8" transform="rotate(-105 24.9939 41.2222)" fill="#555A6E"/>
<rect x="34.6533" y="38.634" width="2" height="8" transform="rotate(-105 34.6533 38.634)" fill="#555A6E"/>
<rect x="44.3125" y="36.0459" width="2" height="8" transform="rotate(-105 44.3125 36.0459)" fill="#555A6E"/>
<rect x="53.9717" y="33.4575" width="2" height="8" transform="rotate(-105 53.9717 33.4575)" fill="#555A6E"/>
<rect x="63.6311" y="30.8694" width="2" height="8" transform="rotate(-105 63.6311 30.8694)" fill="#555A6E"/>
<rect x="73.2903" y="28.2812" width="2" height="8" transform="rotate(-105 73.2903 28.2812)" fill="#555A6E"/>
<rect x="82.9495" y="25.6931" width="2" height="7" transform="rotate(-105 82.9495 25.6931)" fill="#555A6E"/>
<rect x="6.64136" y="46.1396" width="2" height="7" transform="rotate(-105 6.64136 46.1396)" fill="#555A6E"/>
<rect x="90.4875" y="26.7791" width="2" height="5" transform="rotate(165 90.4875 26.7791)" fill="#555A6E"/>
<rect x="9.34961" y="48.5198" width="2" height="5" transform="rotate(165 9.34961 48.5198)" fill="#555A6E"/>
<rect x="43.9436" y="158.307" width="2" height="7" transform="rotate(75 43.9436 158.307)" fill="#555A6E"/>
<rect x="120.252" y="137.861" width="2" height="7" transform="rotate(75 120.252 137.861)" fill="#555A6E"/>
<rect x="36.4055" y="157.221" width="2" height="5" transform="rotate(-15 36.4055 157.221)" fill="#555A6E"/>
<rect x="117.543" y="135.48" width="2" height="5" transform="rotate(-15 117.543 135.48)" fill="#555A6E"/>
<rect x="46.3931" y="159.721" width="2" height="8" transform="rotate(-105 46.3931 159.721)" fill="#555A6E"/>
<rect x="56.0522" y="157.133" width="2" height="8" transform="rotate(-105 56.0522 157.133)" fill="#555A6E"/>
<rect x="65.7114" y="154.545" width="2" height="8" transform="rotate(-105 65.7114 154.545)" fill="#555A6E"/>
<rect x="75.3708" y="151.957" width="2" height="8" transform="rotate(-105 75.3708 151.957)" fill="#555A6E"/>
<rect x="85.03" y="149.369" width="2" height="8" transform="rotate(-105 85.03 149.369)" fill="#555A6E"/>
<rect x="94.6892" y="146.781" width="2" height="8" transform="rotate(-105 94.6892 146.781)" fill="#555A6E"/>
<rect x="104.349" y="144.192" width="2" height="8" transform="rotate(-105 104.349 144.192)" fill="#555A6E"/>
<rect x="108.605" y="94.3938" width="2" height="8" transform="rotate(165 108.605 94.3938)" fill="#555A6E"/>
<rect x="106.017" y="84.7346" width="2" height="8" transform="rotate(165 106.017 84.7346)" fill="#555A6E"/>
<rect x="103.428" y="75.0754" width="2" height="8" transform="rotate(165 103.428 75.0754)" fill="#555A6E"/>
<rect x="116.369" y="123.372" width="2" height="8" transform="rotate(165 116.369 123.372)" fill="#555A6E"/>
<rect x="118.958" y="133.031" width="2" height="8" transform="rotate(165 118.958 133.031)" fill="#555A6E"/>
<rect x="113.781" y="113.712" width="2" height="8" transform="rotate(165 113.781 113.712)" fill="#555A6E"/>
<rect x="111.193" y="104.053" width="2" height="8" transform="rotate(165 111.193 104.053)" fill="#555A6E"/>
<rect x="100.84" y="65.416" width="2" height="8" transform="rotate(165 100.84 65.416)" fill="#555A6E"/>
<rect x="98.252" y="55.7568" width="2" height="8" transform="rotate(165 98.252 55.7568)" fill="#555A6E"/>
<rect x="95.6638" y="46.0977" width="2" height="8" transform="rotate(165 95.6638 46.0977)" fill="#555A6E"/>
<rect x="93.0757" y="36.4382" width="2" height="8" transform="rotate(165 93.0757 36.4382)" fill="#555A6E"/>
<rect x="27.467" y="116.135" width="2" height="8" transform="rotate(165 27.467 116.135)" fill="#555A6E"/>
<rect x="24.8789" y="106.475" width="2" height="8" transform="rotate(165 24.8789 106.475)" fill="#555A6E"/>
<rect x="22.2905" y="96.8162" width="2" height="8" transform="rotate(165 22.2905 96.8162)" fill="#555A6E"/>
<rect x="35.2317" y="145.113" width="2" height="8" transform="rotate(165 35.2317 145.113)" fill="#555A6E"/>
<rect x="37.8198" y="154.772" width="2" height="8" transform="rotate(165 37.8198 154.772)" fill="#555A6E"/>
<rect x="32.6433" y="135.453" width="2" height="8" transform="rotate(165 32.6433 135.453)" fill="#555A6E"/>
<rect x="30.0552" y="125.794" width="2" height="8" transform="rotate(165 30.0552 125.794)" fill="#555A6E"/>
<rect x="19.7024" y="87.157" width="2" height="8" transform="rotate(165 19.7024 87.157)" fill="#555A6E"/>
<rect x="17.1143" y="77.4976" width="2" height="8" transform="rotate(165 17.1143 77.4976)" fill="#555A6E"/>
<rect x="14.5261" y="67.8384" width="2" height="8" transform="rotate(165 14.5261 67.8384)" fill="#555A6E"/>
<rect x="11.9377" y="58.1792" width="2" height="8" transform="rotate(165 11.9377 58.1792)" fill="#555A6E"/>
<rect x="85.0935" y="0.129395" width="95" height="132" transform="rotate(15 85.0935 0.129395)" fill="#222228"/>
<rect x="84.6106" width="96" height="132" transform="rotate(15 84.6106 0)" fill="#F5F5F9"/>
<rect x="93.0959" y="14.697" width="72" height="108" transform="rotate(15 93.0959 14.697)" fill="#555A6E"/>
<rect x="96.3218" y="10.385" width="2" height="8" transform="rotate(-75 96.3218 10.385)" fill="#555A6E"/>
<rect x="105.981" y="12.9731" width="2" height="8" transform="rotate(-75 105.981 12.9731)" fill="#555A6E"/>
<rect x="115.64" y="15.5613" width="2" height="8" transform="rotate(-75 115.64 15.5613)" fill="#555A6E"/>
<rect x="125.3" y="18.1494" width="2" height="8" transform="rotate(-75 125.3 18.1494)" fill="#555A6E"/>
<rect x="134.959" y="20.7378" width="2" height="8" transform="rotate(-75 134.959 20.7378)" fill="#555A6E"/>
<rect x="144.618" y="23.3259" width="2" height="8" transform="rotate(-75 144.618 23.3259)" fill="#555A6E"/>
<rect x="154.277" y="25.9141" width="2" height="8" transform="rotate(-75 154.277 25.9141)" fill="#555A6E"/>
<rect x="163.937" y="28.5022" width="2" height="7" transform="rotate(-75 163.937 28.5022)" fill="#555A6E"/>
<rect x="87.6284" y="8.05566" width="2" height="7" transform="rotate(-75 87.6284 8.05566)" fill="#555A6E"/>
<rect x="169.922" y="33.2117" width="2" height="5" transform="rotate(-165 169.922 33.2117)" fill="#555A6E"/>
<rect x="88.7839" y="11.4709" width="2" height="5" transform="rotate(-165 88.7839 11.4709)" fill="#555A6E"/>
<rect x="63.8494" y="123.846" width="2" height="7" transform="rotate(105 63.8494 123.846)" fill="#555A6E"/>
<rect x="140.157" y="144.293" width="2" height="7" transform="rotate(105 140.157 144.293)" fill="#555A6E"/>
<rect x="57.8643" y="119.137" width="2" height="5" transform="rotate(15 57.8643 119.137)" fill="#555A6E"/>
<rect x="139.002" y="140.878" width="2" height="5" transform="rotate(15 139.002 140.878)" fill="#555A6E"/>
<rect x="65.2634" y="126.296" width="2" height="8" transform="rotate(-75 65.2634 126.296)" fill="#555A6E"/>
<rect x="74.9229" y="128.884" width="2" height="8" transform="rotate(-75 74.9229 128.884)" fill="#555A6E"/>
<rect x="84.582" y="131.472" width="2" height="8" transform="rotate(-75 84.582 131.472)" fill="#555A6E"/>
<rect x="94.2412" y="134.061" width="2" height="8" transform="rotate(-75 94.2412 134.061)" fill="#555A6E"/>
<rect x="103.901" y="136.649" width="2" height="8" transform="rotate(-75 103.901 136.649)" fill="#555A6E"/>
<rect x="113.56" y="139.237" width="2" height="8" transform="rotate(-75 113.56 139.237)" fill="#555A6E"/>
<rect x="123.219" y="141.825" width="2" height="8" transform="rotate(-75 123.219 141.825)" fill="#555A6E"/>
<rect x="151.804" y="100.827" width="2" height="8" transform="rotate(-165 151.804 100.827)" fill="#555A6E"/>
<rect x="154.393" y="91.1672" width="2" height="8" transform="rotate(-165 154.393 91.1672)" fill="#555A6E"/>
<rect x="156.981" y="81.5081" width="2" height="8" transform="rotate(-165 156.981 81.5081)" fill="#555A6E"/>
<rect x="144.04" y="129.804" width="2" height="8" transform="rotate(-165 144.04 129.804)" fill="#555A6E"/>
<rect x="141.452" y="139.464" width="2" height="8" transform="rotate(-165 141.452 139.464)" fill="#555A6E"/>
<rect x="146.628" y="120.145" width="2" height="8" transform="rotate(-165 146.628 120.145)" fill="#555A6E"/>
<rect x="149.216" y="110.486" width="2" height="8" transform="rotate(-165 149.216 110.486)" fill="#555A6E"/>
<rect x="159.569" y="71.8489" width="2" height="8" transform="rotate(-165 159.569 71.8489)" fill="#555A6E"/>
<rect x="162.157" y="62.1895" width="2" height="8" transform="rotate(-165 162.157 62.1895)" fill="#555A6E"/>
<rect x="164.745" y="52.5303" width="2" height="8" transform="rotate(-165 164.745 52.5303)" fill="#555A6E"/>
<rect x="167.333" y="42.8711" width="2" height="8" transform="rotate(-165 167.333 42.8711)" fill="#555A6E"/>
<rect x="70.6665" y="79.0857" width="2" height="8" transform="rotate(-165 70.6665 79.0857)" fill="#555A6E"/>
<rect x="73.2546" y="69.4265" width="2" height="8" transform="rotate(-165 73.2546 69.4265)" fill="#555A6E"/>
<rect x="75.843" y="59.7673" width="2" height="8" transform="rotate(-165 75.843 59.7673)" fill="#555A6E"/>
<rect x="62.9021" y="108.063" width="2" height="8" transform="rotate(-165 62.9021 108.063)" fill="#555A6E"/>
<rect x="60.3137" y="117.723" width="2" height="8" transform="rotate(-165 60.3137 117.723)" fill="#555A6E"/>
<rect x="65.4902" y="98.4043" width="2" height="8" transform="rotate(-165 65.4902 98.4043)" fill="#555A6E"/>
<rect x="68.0784" y="88.7451" width="2" height="8" transform="rotate(-165 68.0784 88.7451)" fill="#555A6E"/>
<rect x="78.4312" y="50.1079" width="2" height="8" transform="rotate(-165 78.4312 50.1079)" fill="#555A6E"/>
<rect x="81.0193" y="40.4487" width="2" height="8" transform="rotate(-165 81.0193 40.4487)" fill="#555A6E"/>
<rect x="83.6074" y="30.7896" width="2" height="8" transform="rotate(-165 83.6074 30.7896)" fill="#555A6E"/>
<rect x="86.1958" y="21.1304" width="2" height="8" transform="rotate(-165 86.1958 21.1304)" fill="#555A6E"/>
<rect x="104.531" y="94.4041" width="12.0343" height="14.4412" rx="2.40686" fill="#E7EAF1"/>
<path d="M108.216 74.7917C109.441 73.2002 111.841 73.2002 113.066 74.7917L129.377 95.98C130.926 97.9925 129.492 100.907 126.952 100.907H94.3304C91.7907 100.907 90.3561 97.9925 91.9053 95.98L108.216 74.7917Z" fill="#00CD80"/>
<path d="M108.216 63.4065C109.441 61.815 111.841 61.815 113.066 63.4065L129.377 84.5947C130.926 86.6072 129.492 89.5221 126.952 89.5221H94.3304C91.7907 89.5221 90.3561 86.6072 91.9053 84.5947L108.216 63.4065Z" fill="#00CD80"/>
<circle cx="108.979" cy="87.2864" r="1.80401" fill="#191929"/>
<circle cx="114.391" cy="92.6985" r="1.80401" fill="#191929"/>
<circle cx="119.803" cy="87.2862" r="1.80401" fill="#191929"/>
</svg>
