<svg width="110" height="152" viewBox="0 0 110 152" fill="none" xmlns="http://www.w3.org/2000/svg">
<mask id="path-1-inside-1_10_631" fill="white">
<path fill-rule="evenodd" clip-rule="evenodd" d="M82.1206 111.435C80.0698 107.883 81.529 103.365 84.9664 101.127C100.036 91.3171 110 74.3221 110 55C110 24.6243 85.3757 0 55 0C24.6243 0 0 24.6243 0 55C0 74.1288 9.76532 90.9767 24.5827 100.831C27.9715 103.084 29.3918 107.566 27.3569 111.09L10.259 140.705C7.56469 145.371 10.9326 151.205 16.3212 151.205H92.9573C98.3459 151.205 101.714 145.371 99.0195 140.705L82.1206 111.435Z"/>
</mask>
<path fill-rule="evenodd" clip-rule="evenodd" d="M82.1206 111.435C80.0698 107.883 81.529 103.365 84.9664 101.127C100.036 91.3171 110 74.3221 110 55C110 24.6243 85.3757 0 55 0C24.6243 0 0 24.6243 0 55C0 74.1288 9.76532 90.9767 24.5827 100.831C27.9715 103.084 29.3918 107.566 27.3569 111.09L10.259 140.705C7.56469 145.371 10.9326 151.205 16.3212 151.205H92.9573C98.3459 151.205 101.714 145.371 99.0195 140.705L82.1206 111.435Z" fill="#FCFFE8"/>
<path d="M10.259 140.705L-15.7218 125.705L10.259 140.705ZM24.5827 100.831L41.1952 75.8501L24.5827 100.831ZM27.3569 111.09L1.3761 96.0904L27.3569 111.09ZM84.9664 101.127L68.5995 75.9852L84.9664 101.127ZM80 55C80 63.7522 75.5261 71.4761 68.5995 75.9852L101.333 126.269C124.546 111.158 140 84.8921 140 55H80ZM55 30C68.8071 30 80 41.1929 80 55H140C140 8.0558 101.944 -30 55 -30V30ZM30 55C30 41.1929 41.1929 30 55 30V-30C8.0558 -30 -30 8.0558 -30 55H30ZM41.1952 75.8501C34.3842 71.3206 30 63.6658 30 55H-30C-30 84.5917 -14.8535 110.633 7.97013 125.811L41.1952 75.8501ZM36.2397 155.705L53.3376 126.09L1.3761 96.0904L-15.7218 125.705L36.2397 155.705ZM92.9573 121.205H16.3212V181.205H92.9573V121.205ZM56.1398 126.435L73.0387 155.705L125 125.705L108.101 96.435L56.1398 126.435ZM-15.7218 125.705C-29.9631 150.371 -12.1613 181.205 16.3212 181.205V121.205C34.0265 121.205 45.0925 140.371 36.2397 155.705L-15.7218 125.705ZM7.97013 125.811C0.377818 120.762 -5.76261 108.455 1.3761 96.0904L53.3376 126.09C64.5462 106.677 55.5652 85.4064 41.1952 75.8501L7.97013 125.811ZM92.9573 181.205C121.44 181.205 139.242 150.371 125 125.705L73.0387 155.705C64.1861 140.371 75.2519 121.205 92.9573 121.205V181.205ZM68.5995 75.9852C54.0486 85.4575 44.8395 106.862 56.1398 126.435L108.101 96.435C115.3 108.904 109.009 121.272 101.333 126.269L68.5995 75.9852Z" fill="#FF6767" fill-opacity="0.18" mask="url(#path-1-inside-1_10_631)"/>
<circle cx="32" cy="70" r="9" fill="#5EE0AF"/>
<circle cx="50" cy="48" r="9" fill="#8EFFFD"/>
<circle cx="53" cy="88" r="9" fill="#FF6767"/>
<circle cx="79" cy="63" r="9" fill="#00CD80"/>
<rect x="60" y="114" width="14" height="26" rx="3" fill="#555A6E"/>
<rect x="69" y="117" width="2" height="19" rx="1" fill="#E7EAF1"/>
</svg>
