<svg xmlns="http://www.w3.org/2000/svg" width="271" height="271" viewBox="0 0 271 271" fill="none">
<rect x="103.374" y="182.879" width="58.839" height="70.6068" rx="11.7678" fill="#3E3E45"/>
<path d="M123.288 86.9886C129.278 79.2074 141.013 79.2074 147.003 86.9886L226.75 190.584C234.325 200.423 227.31 214.675 214.893 214.675L55.3977 214.675C42.9803 214.675 35.9659 200.423 43.5404 190.584L123.288 86.9886Z" fill="#00CD80"/>
<path d="M123.288 31.3228C129.278 23.5416 141.013 23.5416 147.003 31.3228L226.75 134.918C234.325 144.758 227.31 159.009 214.893 159.009H55.3977C42.9803 159.009 35.9659 144.758 43.5404 134.918L123.288 31.3228Z" fill="#00CD80"/>
<circle cx="127.02" cy="148.078" r="8.8203" fill="#191929"/>
<circle cx="153.48" cy="174.541" r="8.8203" fill="#191929"/>
<circle cx="179.941" cy="148.078" r="8.8203" fill="#191929"/>
</svg>