<svg width="182" height="278" viewBox="0 0 182 278" fill="none" xmlns="http://www.w3.org/2000/svg">
<rect x="6.51257" y="170.284" width="49.2604" height="59.1124" rx="9.85207" transform="rotate(15 6.51257 170.284)" fill="#3E3E45"/>
<path d="M43.4168 97.0605C49.9469 92.0659 59.4364 94.6086 62.5943 102.199L104.637 203.254C108.63 212.853 99.8697 222.858 89.828 220.167L-39.1524 185.607C-49.194 182.916 -51.7783 169.871 -43.5208 163.556L43.4168 97.0605Z" fill="#00CD80"/>
<path d="M55.4788 52.0448C62.0088 47.0502 71.4983 49.5929 74.6562 57.1833L116.699 158.239C120.692 167.837 111.932 177.842 101.89 175.152L-27.0904 140.591C-37.1321 137.901 -39.7164 124.856 -31.4589 118.54L55.4788 52.0448Z" fill="#00CD80"/>
<circle cx="33.1978" cy="147.271" r="7.38441" transform="rotate(15 33.1978 147.271)" fill="#191929"/>
<circle cx="48.8617" cy="174.404" r="7.38441" transform="rotate(15 48.8617 174.404)" fill="#191929"/>
<circle cx="75.9936" cy="158.738" r="7.38441" transform="rotate(15 75.9936 158.738)" fill="#191929"/>
</svg>
