<svg width="227" height="227" viewBox="0 0 227 227" fill="none" xmlns="http://www.w3.org/2000/svg">
<rect x="86.5221" y="153.107" width="49.2604" height="59.1124" rx="9.85207" fill="#3E3E45"/>
<path d="M103.217 72.8274C108.232 66.3129 118.056 66.3129 123.071 72.8274L189.836 159.558C196.178 167.796 190.305 179.727 179.91 179.727H46.3792C35.9833 179.727 30.1108 167.796 36.4522 159.558L103.217 72.8274Z" fill="#00CD80"/>
<path d="M103.217 26.2236C108.232 19.7092 118.056 19.7092 123.071 26.2236L189.836 112.954C196.178 121.192 190.305 133.124 179.91 133.124H46.3792C35.9833 133.124 30.1108 121.192 36.4522 112.954L103.217 26.2236Z" fill="#00CD80"/>
<circle cx="106.342" cy="123.972" r="7.38441" fill="#191929"/>
<circle cx="128.495" cy="146.126" r="7.38441" fill="#191929"/>
<circle cx="150.647" cy="123.972" r="7.38441" fill="#191929"/>
</svg>
